<?xml version="1.0" standalone="no"?>
<!DOCTYPE svg PUBLIC "-//W3C//DTD SVG 20010904//EN"
 "http://www.w3.org/TR/2001/REC-SVG-20010904/DTD/svg10.dtd">
<svg version="1.0" xmlns="http://www.w3.org/2000/svg"
 width="614.000000pt" height="614.000000pt" viewBox="0 0 614.000000 614.000000"
 preserveAspectRatio="xMidYMid meet">
<metadata>
Created by potrace 1.11, written by Peter Selinger 2001-2013
</metadata>
<g transform="translate(0.000000,614.000000) scale(0.100000,-0.100000)"
fill="#000000" stroke="none">
<path d="M2365 5726 c-60 -28 -73 -42 -119 -126 -20 -36 -43 -78 -52 -94 -15
-27 -28 -90 -41 -197 -4 -34 1 -62 16 -103 11 -31 21 -70 21 -87 0 -17 11 -59
25 -93 14 -34 29 -84 34 -112 17 -86 50 -156 107 -220 59 -68 122 -104 182
-104 31 0 45 7 80 43 46 47 91 132 111 212 7 28 19 66 27 85 18 46 54 286 54
364 0 86 -22 192 -53 251 -32 62 -133 163 -184 183 -65 26 -151 25 -208 -2z
m144 -144 c32 -34 74 -121 103 -217 5 -16 16 -84 24 -149 15 -127 17 -115 -33
-277 -21 -70 -67 -127 -109 -135 -54 -10 -94 35 -144 162 -45 114 -47 139 -30
344 9 118 55 284 83 302 30 19 70 8 106 -30z"/>
<path d="M3794 5735 c-10 -8 -25 -15 -32 -15 -37 -1 -135 -108 -175 -191 -31
-65 -37 -87 -42 -174 -7 -115 22 -361 49 -413 9 -17 16 -44 16 -59 0 -32 20
-94 37 -114 6 -8 22 -39 35 -69 16 -34 39 -66 62 -84 33 -25 42 -27 84 -21 74
11 104 28 161 91 60 67 84 116 111 224 10 41 30 106 44 145 14 38 26 81 26 95
0 14 7 47 15 74 10 33 13 70 10 110 -6 66 -32 175 -45 191 -4 6 -22 37 -40 70
-36 67 -86 125 -109 125 -9 0 -25 7 -35 15 -13 10 -43 15 -86 15 -43 0 -73 -5
-86 -15z m153 -123 c28 -18 74 -184 83 -302 17 -205 15 -230 -30 -344 -50
-127 -90 -172 -144 -162 -42 8 -88 65 -109 135 -50 162 -48 150 -33 277 16
130 20 144 62 254 46 117 117 176 171 142z"/>
<path d="M1245 5399 c-72 -70 -75 -81 -58 -177 7 -37 19 -63 41 -85 17 -18 41
-54 52 -81 31 -68 80 -150 139 -230 28 -38 51 -77 51 -87 0 -11 5 -19 10 -19
6 0 54 -45 107 -101 53 -55 113 -109 133 -119 19 -10 44 -27 54 -39 23 -25 50
-26 120 -6 84 25 126 83 140 195 5 48 -26 175 -58 230 -14 25 -26 53 -26 62 0
10 -24 46 -53 80 -29 35 -60 74 -68 88 -29 45 -210 230 -253 258 -41 28 -70
39 -176 66 -30 7 -63 17 -72 21 -14 5 -34 -9 -83 -56z m233 -134 c20 -14 42
-25 49 -25 7 0 43 -26 80 -58 38 -31 85 -70 106 -85 21 -16 58 -59 81 -95 73
-113 83 -202 29 -256 -22 -22 -34 -26 -86 -26 -66 0 -47 -13 -194 140 -34 36
-75 75 -91 87 -65 50 -119 276 -77 323 24 27 58 25 103 -5z"/>
<path d="M4929 5430 c-156 -41 -214 -84 -371 -273 -121 -145 -142 -175 -157
-217 -6 -19 -23 -52 -37 -73 -25 -38 -25 -42 -22 -188 l3 -149 31 -31 c30 -30
72 -46 144 -56 29 -4 40 0 64 26 17 17 36 31 43 31 18 0 263 245 263 263 0 8
7 20 15 27 38 31 165 245 165 278 0 7 17 31 39 55 27 30 40 54 45 85 3 23 9
60 12 82 6 38 4 42 -57 105 -34 36 -65 65 -68 64 -3 -1 -54 -14 -112 -29z m46
-160 c42 -47 -12 -273 -77 -323 -16 -12 -57 -51 -91 -87 -147 -153 -128 -140
-194 -140 -52 0 -64 4 -86 26 -54 54 -44 143 29 256 23 36 60 79 81 95 21 15
68 54 106 85 37 32 73 58 80 58 7 0 28 11 47 25 43 29 81 32 105 5z"/>
<path d="M634 4853 c-11 -2 -45 -28 -74 -58 -54 -54 -54 -56 -58 -124 -3 -50
0 -79 12 -102 9 -18 16 -38 16 -45 0 -16 182 -194 218 -213 14 -8 48 -31 75
-52 27 -22 53 -39 59 -39 14 0 147 -102 187 -144 19 -20 42 -36 52 -36 9 0 23
-7 30 -16 8 -9 44 -37 81 -61 62 -41 72 -44 116 -40 82 9 106 18 150 61 l44
41 -5 88 c-3 49 -10 94 -15 100 -5 7 -22 41 -38 77 -22 51 -51 89 -138 180
-140 146 -230 227 -281 250 -22 9 -61 36 -87 59 -29 26 -56 41 -72 41 -15 0
-44 9 -66 20 -30 15 -57 20 -112 19 -40 -1 -82 -4 -94 -6z m235 -173 c38 -7
79 -28 152 -77 55 -38 121 -82 147 -99 59 -39 99 -80 105 -108 3 -11 12 -39
21 -61 8 -22 15 -61 16 -87 0 -40 -4 -50 -24 -64 -36 -23 -129 -3 -169 37 -16
16 -41 32 -55 36 -35 8 -117 46 -137 63 -8 7 -28 20 -44 29 -180 101 -201 115
-215 146 -21 44 -21 148 -1 165 33 28 120 36 204 20z"/>
<path d="M5517 4845 c-15 -8 -45 -17 -65 -21 -20 -3 -48 -16 -62 -28 -49 -43
-99 -76 -115 -76 -9 0 -96 -80 -194 -177 -167 -167 -180 -183 -221 -268 -38
-77 -45 -101 -48 -168 l-4 -79 37 -38 c41 -42 110 -70 173 -70 32 0 53 11 120
60 44 33 86 60 94 60 8 0 30 16 49 36 40 42 171 144 185 144 5 0 32 16 59 35
28 20 66 46 85 59 55 37 186 176 213 226 35 64 40 153 10 200 -32 52 -85 99
-124 110 -51 15 -160 12 -192 -5z m159 -180 c21 -13 24 -23 24 -76 0 -109 -4
-113 -231 -240 -16 -9 -36 -22 -44 -29 -20 -17 -102 -55 -137 -63 -14 -4 -39
-20 -55 -36 -40 -40 -133 -60 -169 -37 -20 14 -24 24 -24 64 1 26 8 65 16 87
9 22 18 50 21 61 6 28 46 69 105 108 26 17 92 62 148 99 59 40 117 72 143 77
59 13 174 4 203 -15z"/>
<path d="M2095 4260 c-16 -16 -37 -30 -47 -30 -10 0 -33 -8 -52 -18 -44 -24
-166 -131 -166 -146 0 -7 -20 -32 -45 -56 -25 -24 -45 -52 -45 -61 0 -9 -7
-19 -15 -23 -8 -3 -15 -15 -15 -26 0 -23 -16 -54 -44 -87 -20 -24 -39 -54 -55
-90 -5 -11 -15 -24 -20 -28 -6 -3 -11 -18 -11 -32 0 -14 -11 -41 -25 -59 -17
-22 -25 -46 -25 -71 0 -21 -6 -48 -14 -59 -9 -13 -19 -70 -26 -150 -6 -71 -13
-135 -15 -142 -7 -19 -5 -681 2 -777 3 -44 12 -89 19 -100 8 -11 14 -29 14
-42 0 -12 5 -25 10 -28 6 -3 10 -19 10 -35 0 -16 5 -32 10 -35 6 -3 10 -14 10
-24 0 -10 9 -26 21 -37 12 -10 29 -33 38 -50 32 -61 71 -113 93 -125 13 -6 37
-24 53 -39 51 -48 101 -62 202 -57 109 5 141 13 173 42 14 12 37 25 52 29 14
3 39 17 55 30 16 14 54 36 84 50 42 19 82 53 162 135 58 61 117 128 130 148
14 21 32 44 41 52 9 7 16 19 16 27 0 14 45 103 61 118 5 6 9 18 9 28 0 10 6
28 13 41 32 58 58 48 208 -80 47 -40 105 -80 130 -89 65 -24 209 -31 240 -11
13 8 35 18 49 22 29 8 120 93 120 113 0 7 10 26 22 42 16 23 30 30 54 30 31 0
34 -3 44 -42 15 -58 34 -111 64 -181 9 -21 16 -44 16 -51 0 -8 7 -19 15 -26 8
-7 15 -27 15 -44 0 -23 9 -41 35 -66 19 -19 35 -40 35 -47 0 -19 27 -60 75
-114 22 -25 59 -69 83 -97 24 -29 74 -77 112 -107 55 -44 76 -55 105 -55 29 0
37 -5 45 -26 8 -21 15 -25 33 -19 12 4 40 10 62 13 36 6 40 10 43 38 2 17 14
42 28 55 13 12 24 27 24 32 0 5 17 28 38 52 20 23 44 55 52 71 8 16 27 43 41
61 19 22 30 49 34 87 4 31 13 60 21 66 7 7 18 37 24 68 6 31 17 89 25 127 10
47 16 173 20 380 6 310 1 420 -29 600 -8 50 -18 135 -23 190 -4 55 -11 98 -16
95 -9 -6 -105 142 -113 175 -3 13 -12 29 -20 36 -8 6 -14 19 -14 28 0 9 -22
39 -50 66 -27 27 -50 55 -50 61 0 7 -44 53 -97 103 -66 62 -104 91 -120 91
-13 0 -37 7 -52 15 -48 24 -171 45 -270 45 -87 0 -99 -3 -183 -40 -49 -22
-102 -50 -118 -62 -24 -20 -65 -45 -156 -96 -42 -23 -203 -205 -210 -236 -21
-98 -97 -98 -118 0 -9 41 -175 218 -229 244 -56 27 -137 77 -164 102 -12 11
-43 31 -70 44 -26 13 -70 37 -96 54 -46 29 -53 30 -195 35 l-148 6 -29 -31z
m332 -176 c23 -13 46 -24 52 -24 5 0 37 -17 71 -37 34 -21 73 -45 88 -53 101
-57 204 -163 248 -253 19 -39 34 -76 34 -82 0 -7 7 -18 15 -25 8 -7 15 -27 15
-46 0 -18 4 -35 9 -38 5 -3 13 -25 20 -49 7 -31 24 -56 55 -85 53 -48 84 -59
125 -41 24 11 30 21 35 57 3 25 6 59 6 76 0 17 7 40 15 50 8 11 15 28 15 38 0
43 85 185 154 258 134 141 168 170 205 175 20 3 54 12 76 20 137 48 156 52
200 43 22 -4 66 -7 97 -7 31 -1 60 -5 63 -11 3 -5 16 -10 29 -10 36 0 78 -25
132 -78 52 -52 64 -67 90 -120 9 -18 25 -37 35 -43 11 -5 19 -17 19 -26 0 -9
6 -24 13 -32 8 -9 24 -50 36 -91 12 -41 30 -102 41 -135 21 -67 35 -135 31
-149 -1 -6 2 -19 8 -30 32 -66 54 -338 46 -565 -3 -91 -8 -168 -11 -173 -3 -4
-6 -74 -8 -155 -2 -102 -6 -148 -14 -151 -7 -2 -12 -12 -12 -23 0 -28 -38
-162 -48 -168 -5 -3 -15 -18 -23 -32 -49 -91 -87 -135 -143 -162 -40 -20 -66
-26 -85 -22 -41 9 -241 217 -241 250 0 6 -9 18 -20 28 -11 9 -20 23 -20 31 0
7 -8 24 -18 37 -10 13 -25 42 -34 64 -9 22 -27 67 -41 100 -13 33 -32 85 -42
115 -10 30 -21 64 -26 75 -19 45 -41 112 -46 138 -3 15 -9 30 -14 33 -5 3 -9
15 -9 27 0 13 -6 32 -14 43 -22 31 -55 124 -50 138 7 19 -33 92 -61 110 -25
16 -92 21 -111 8 -5 -4 -20 -24 -33 -44 -23 -39 -22 -68 4 -98 18 -20 45 -140
45 -196 0 -43 -39 -146 -61 -159 -5 -4 -9 -14 -9 -24 0 -29 -87 -63 -163 -64
-51 -1 -70 4 -92 21 -15 12 -33 22 -40 22 -6 0 -22 8 -33 18 -12 9 -42 32 -66
50 -24 18 -51 48 -60 66 -9 18 -22 39 -30 45 -8 7 -18 27 -22 44 -3 18 -11 38
-17 45 -6 8 -8 44 -4 95 5 68 3 89 -12 123 -35 78 -105 98 -161 47 l-30 -28
-6 -185 c-3 -101 -8 -188 -10 -192 -3 -4 -7 -30 -8 -57 -4 -52 -52 -167 -80
-190 -9 -7 -16 -19 -16 -26 0 -13 -69 -85 -81 -85 -5 0 -16 -16 -25 -36 -24
-49 -219 -213 -314 -263 -32 -17 -67 -25 -127 -28 -71 -5 -86 -3 -122 17 -27
16 -42 32 -46 51 -4 16 -15 31 -26 34 -22 7 -74 109 -64 125 4 6 -5 26 -20 46
-18 24 -24 41 -20 55 4 12 3 31 -3 43 -16 34 -32 144 -33 226 -3 145 8 577 14
587 4 6 7 50 8 99 1 49 6 97 11 107 5 10 13 43 18 73 5 30 16 70 25 87 9 18
26 59 37 92 12 34 36 75 55 95 18 19 33 42 33 52 0 22 41 88 55 88 6 0 21 21
35 46 23 44 96 103 127 104 7 0 34 15 60 33 27 19 71 39 98 46 137 33 155 33
222 -5z"/>
<path d="M5650 2250 c-81 -65 -259 -238 -271 -265 -5 -11 -13 -27 -18 -35 -32
-54 -39 -141 -17 -194 16 -39 73 -106 90 -106 7 0 23 -11 36 -25 16 -17 34
-25 57 -25 36 0 119 18 145 31 10 5 23 9 29 9 6 0 22 9 36 20 14 11 33 20 43
20 9 0 57 42 107 93 77 79 93 102 111 157 22 64 29 158 14 176 -5 5 -19 37
-33 72 -13 35 -37 75 -52 90 -26 25 -36 27 -120 30 l-92 4 -65 -52z m161 -180
c89 -25 89 -93 2 -190 -30 -33 -61 -60 -69 -60 -8 0 -14 -4 -14 -10 0 -5 -6
-10 -12 -10 -7 0 -35 -12 -63 -25 -55 -27 -105 -33 -105 -12 0 7 7 36 15 64
31 105 83 174 175 235 30 21 27 20 71 8z"/>
<path d="M305 2243 c-20 -4 -56 -18 -87 -34 -10 -5 -24 -9 -31 -9 -7 0 -42
-29 -77 -65 l-65 -65 0 -60 c0 -34 6 -65 13 -72 6 -6 12 -22 12 -33 0 -12 14
-34 31 -51 17 -16 37 -41 45 -57 13 -24 53 -56 115 -93 11 -6 27 -18 36 -26
10 -9 40 -23 68 -33 27 -9 55 -21 62 -27 37 -30 238 -40 301 -15 23 9 54 17
68 17 14 0 37 9 51 20 14 11 40 20 58 20 38 0 65 26 65 62 0 14 -16 52 -35 84
-19 33 -44 77 -55 100 -31 65 -290 294 -332 294 -13 0 -32 6 -43 13 -45 30
-138 44 -200 30z m130 -160 c22 -3 59 -19 82 -34 23 -16 45 -29 49 -29 4 0 22
-15 39 -32 17 -18 48 -46 68 -61 55 -41 89 -100 77 -131 -5 -14 -19 -32 -32
-40 -29 -19 -153 -32 -170 -19 -7 6 -40 14 -73 18 -33 4 -82 17 -110 30 -52
24 -135 92 -135 112 0 6 -3 13 -7 15 -5 2 -16 20 -26 42 -17 37 -17 39 0 59
28 30 90 67 115 67 13 0 30 5 38 10 8 5 22 7 30 4 8 -3 33 -8 55 -11z"/>
<path d="M4696 1761 c-3 -5 -26 -16 -51 -24 -24 -9 -59 -27 -77 -41 -18 -13
-46 -28 -63 -32 -16 -3 -39 -14 -50 -24 -39 -33 -222 -120 -254 -120 -9 0 -22
-5 -28 -11 -7 -7 -51 -12 -110 -13 -85 -1 -104 2 -143 23 -119 63 -149 75
-198 82 -31 4 -70 18 -90 33 -61 41 -149 64 -283 75 -103 7 -129 6 -154 -6
-16 -8 -58 -18 -92 -23 -66 -8 -152 -43 -193 -78 -76 -65 -114 -92 -128 -92
-10 0 -26 -7 -36 -15 -11 -8 -28 -15 -38 -15 -10 0 -39 -10 -63 -21 -41 -19
-56 -21 -163 -15 -64 3 -142 9 -172 12 -58 5 -146 42 -193 81 -15 12 -43 25
-62 29 -19 3 -35 12 -35 19 0 7 -12 15 -27 18 -16 3 -53 22 -83 41 -30 20 -62
36 -71 36 -9 0 -22 6 -28 14 -22 27 -104 35 -282 30 -134 -3 -176 -8 -189 -19
-9 -8 -24 -15 -32 -15 -9 0 -28 -6 -43 -14 -39 -20 -145 -125 -145 -144 0 -8
-6 -23 -14 -31 -8 -9 -30 -48 -50 -88 -32 -63 -36 -80 -36 -149 0 -88 16 -194
36 -241 13 -29 177 -191 207 -203 6 -3 25 -14 41 -25 43 -28 220 -27 331 2 44
12 111 29 149 38 38 9 80 24 93 35 45 35 216 75 297 68 43 -4 68 -13 108 -40
29 -20 70 -41 90 -47 20 -7 47 -20 60 -30 13 -10 38 -21 57 -25 19 -3 42 -12
50 -20 29 -24 166 -47 243 -39 58 5 77 11 103 35 18 15 37 28 43 28 27 0 320
125 343 146 14 13 29 24 34 24 4 0 33 12 63 26 128 60 141 64 233 64 102 0
164 -22 240 -86 22 -19 47 -34 54 -34 8 0 34 -13 58 -30 25 -16 57 -30 73 -30
15 0 46 -9 68 -19 23 -11 90 -36 149 -56 l108 -36 122 9 c87 7 145 17 202 37
44 15 112 38 152 52 40 13 77 31 84 39 6 8 16 14 21 14 5 0 31 18 59 40 28 22
56 40 63 40 7 0 25 13 41 30 16 17 34 30 41 30 19 0 86 83 132 163 37 65 41
78 32 102 -5 14 -10 41 -10 60 0 36 -31 118 -49 130 -6 3 -18 21 -25 40 -20
48 -133 158 -186 182 -35 15 -79 21 -187 27 -86 4 -144 3 -147 -3z m210 -167
c28 -5 94 -51 94 -65 0 -4 10 -17 21 -28 34 -32 19 -82 -38 -128 -56 -45 -67
-56 -202 -201 -72 -78 -111 -112 -126 -112 -13 0 -28 -7 -35 -15 -7 -8 -21
-15 -31 -15 -11 0 -27 -4 -37 -9 -43 -23 -123 -51 -145 -51 -14 0 -43 -7 -67
-15 -37 -13 -44 -13 -63 0 -12 8 -29 15 -37 15 -18 0 -137 58 -160 78 -8 7
-27 23 -42 36 -15 14 -37 28 -49 31 -12 4 -48 27 -79 51 -32 24 -62 44 -68 44
-5 0 -24 8 -43 17 -46 24 -116 42 -162 43 -20 0 -46 5 -56 12 -15 9 -39 7
-115 -12 -53 -12 -101 -29 -107 -37 -7 -7 -36 -20 -65 -29 -30 -8 -56 -19 -59
-24 -3 -4 -25 -18 -49 -30 -25 -11 -64 -37 -88 -55 -24 -19 -47 -35 -52 -35
-4 0 -24 -13 -43 -30 -18 -16 -42 -30 -53 -30 -16 0 -57 -18 -164 -72 -48 -25
-216 -15 -216 12 0 6 -9 10 -19 10 -11 0 -23 5 -26 10 -3 6 -17 10 -31 10 -23
0 -115 52 -176 99 -14 12 -31 21 -37 21 -18 0 -82 37 -103 59 -10 12 -25 21
-34 21 -8 0 -22 4 -32 9 -73 37 -152 45 -240 25 -35 -8 -74 -11 -86 -8 -24 6
-84 -9 -206 -50 -41 -15 -91 -26 -112 -26 -53 0 -105 23 -113 51 -4 13 -17 31
-29 40 -11 9 -32 37 -45 62 -21 38 -23 50 -13 71 10 22 14 24 39 14 31 -11 51
4 184 133 45 44 69 59 107 69 40 9 54 9 70 -1 15 -10 30 -10 59 -3 34 9 44 7
93 -19 30 -16 60 -33 65 -37 6 -4 31 -15 57 -25 26 -9 55 -26 64 -36 9 -11 25
-19 34 -19 9 0 20 -4 26 -9 5 -5 40 -25 77 -44 109 -57 180 -71 347 -72 139 0
147 1 197 28 29 15 61 27 72 27 24 0 51 12 116 49 28 17 56 30 64 30 8 1 29
12 48 27 18 14 48 32 66 40 17 8 39 18 47 23 8 5 39 19 69 31 47 19 65 21 150
15 53 -4 114 -13 136 -20 22 -7 74 -21 115 -30 72 -17 142 -45 240 -98 105
-57 180 -80 266 -81 39 0 82 4 95 10 41 19 72 31 134 49 33 10 64 22 69 27 6
4 25 8 43 8 19 0 46 6 61 14 15 7 44 16 64 19 64 10 283 109 292 132 4 11 12
14 26 10 11 -3 32 -8 46 -11z"/>
<path d="M5445 1326 c-76 -34 -121 -129 -89 -187 7 -13 13 -32 14 -41 0 -17
29 -67 68 -118 10 -14 22 -38 26 -53 3 -15 33 -54 66 -86 45 -45 70 -61 107
-70 26 -7 63 -16 80 -22 36 -11 138 4 183 28 14 7 33 13 42 13 10 0 47 28 84
63 62 58 66 65 68 112 2 28 -2 61 -9 75 -19 36 -160 170 -180 170 -9 0 -40 16
-69 35 -29 19 -58 35 -63 35 -6 0 -37 13 -69 30 -52 26 -69 30 -144 29 -49 0
-98 -5 -115 -13z m148 -166 c25 0 48 -4 51 -9 12 -19 90 -52 112 -47 24 6 46
-3 116 -52 64 -44 76 -68 50 -94 -22 -23 -120 -51 -170 -49 -35 1 -102 42
-137 82 -31 37 -65 87 -65 97 0 5 -7 16 -16 23 -20 16 -36 57 -28 70 4 6 13 4
23 -5 11 -10 36 -16 64 -16z"/>
<path d="M455 1246 c-33 -7 -73 -20 -90 -29 -16 -8 -43 -22 -60 -30 -42 -20
-202 -187 -219 -229 -8 -19 -22 -40 -30 -48 -22 -17 -20 -63 3 -108 27 -52
140 -158 176 -166 100 -23 142 -27 175 -17 19 5 55 15 80 21 43 11 96 32 132
51 10 5 23 9 29 9 11 0 191 152 220 186 24 28 38 81 41 152 l3 64 -66 62 c-58
55 -73 64 -135 79 -78 19 -171 20 -259 3z m273 -298 c16 -16 -33 -68 -64 -68
-12 0 -24 -7 -28 -15 -3 -8 -12 -15 -21 -15 -8 0 -32 -11 -53 -24 -21 -15 -66
-30 -107 -37 -38 -6 -78 -15 -87 -20 -19 -10 -89 10 -95 28 -2 6 9 27 26 45
22 25 47 40 93 53 35 10 68 22 73 25 44 30 241 50 263 28z"/>
</g>
</svg>
